<svg width="447" height="222" viewBox="0 0 447 222" fill="none" xmlns="http://www.w3.org/2000/svg">
<g clip-path="url(#clip0_40_46)">
<path d="M28.9801 63.8119C28.8673 34.1215 47.9839 17.6556 83.0798 17.5322C108.335 17.4424 112.849 33.8635 112.849 39.8308C112.849 51.2605 96.5765 63.3856 96.5765 63.3856C96.5765 63.3856 97.4793 70.5082 111.45 70.4521C125.421 70.396 139.03 61.232 138.951 38.2941C138.884 11.9463 111.111 -0.10032 83.6554 0.000629032C60.6906 0.0791452 -0.213848 3.28709 0.000564675 63.3856C0.203692 116.765 101.564 121.476 101.643 155.653C101.779 192.769 59.8894 202.763 45.7156 202.763C31.5418 202.763 25.7752 192.792 25.7527 187.318C25.6511 157.257 55.7479 148.89 55.7479 148.89C55.7479 146.646 53.9874 136.652 42.3301 136.697C12.3011 136.753 0.339111 162.417 0.42939 187.475C0.508384 208.786 15.664 222.089 38.5497 222C82.3125 221.843 131.661 200.621 131.481 153.489C131.323 109.407 29.1043 97.8991 28.9801 63.8119Z" fill="#506B74"/>
<path d="M446.171 181.911C445.821 181.07 444.839 181.272 443.541 182.338C438.576 186.409 427.224 197.94 400.659 198.041C352.224 198.22 343.817 118.874 343.817 118.874C343.817 118.874 380.73 91.4831 386.496 80.4348C392.263 69.3864 373.914 66.9749 373.914 66.9749C373.914 66.9749 348.094 98.2019 329.79 107.355C331.776 93.7713 345.318 62.8135 346.097 45.0128C346.875 27.212 324.531 31.5529 320.965 33.2578C320.965 41.0309 301.228 111.595 294.039 150.382C289.808 157.111 283.759 164.806 278.342 164.817C275.205 164.817 274.054 159.041 274.02 150.763C274.02 139.277 280.385 120.871 280.34 109.688C280.34 101.948 276.762 101.488 273.681 101.5C273.016 101.5 269.314 101.601 268.637 101.601C260.738 101.601 263.333 94.8706 256.224 94.9379C234.467 95.0164 206.751 118.627 205.543 154.262C198.197 159.097 187.916 165.187 182.669 165.21C177.162 165.21 175.796 160.151 175.785 155.777C175.785 148.093 188.289 102.442 188.289 102.442C188.289 102.442 204.212 98.3814 211.163 97.0466C216.422 96.0259 217.934 95.6445 219.977 93.1208C222.019 90.597 226.014 85.3813 229.242 80.6928C232.469 76.0042 229.298 72.3813 223.328 72.4037C215.497 72.4037 194.541 77.339 194.541 77.339C194.541 77.339 204.607 34.2 204.595 33.3251C204.584 32.4502 203.467 31.9903 201.763 32.0015C197.949 32.0015 191.144 34.0429 186.788 35.5908C180.119 37.9575 174.691 46.0784 173.596 49.8583C172.501 53.6383 164.963 83.2389 164.963 83.2389C164.963 83.2389 124.597 97.0915 119.079 99.1665C118.914 99.2226 118.771 99.3285 118.67 99.4692C118.569 99.61 118.514 99.7787 118.514 99.9517C118.514 100.311 123.13 117.898 132.598 117.831C139.369 117.831 159.264 109.733 159.264 109.733C159.264 109.733 149.04 150.112 149.108 163.572C149.108 172.209 153.204 182.326 170.177 182.27C185.975 182.27 199.799 174.161 207.541 168.519C211.773 179.163 221.771 182.08 228.598 182.057C243.901 182.057 255.682 169.921 257.194 168.294C259.18 172.961 263.864 181.923 274.562 181.889C280.61 181.889 286.874 175.159 291.489 168.631C291.402 169.988 291.421 171.349 291.545 172.703C293.396 189.438 318.392 179.601 319.758 177.268C320.604 165.165 320.074 140.421 324.937 125.144C331.392 177.256 355.881 212.308 399.903 212.151C424.515 212.062 437.143 205.029 442.368 199.23C444.466 196.923 445.92 194.111 446.587 191.073C447.254 188.036 447.111 184.877 446.171 181.911ZM234.952 164.728C213.815 164.806 241.418 110.349 259.451 110.282C259.474 117.304 259.079 164.649 234.952 164.728Z" fill="#506B74"/>
<path d="M406.549 181.418C425.632 181.351 440.404 168.866 443.112 164.806C446.611 159.523 439.05 151.548 436.646 151.683C430.62 157.414 424.323 164.346 410.183 164.391C393.538 164.458 397.307 146.254 397.307 146.254C397.307 146.254 429.345 150.37 442.221 127.477C446.34 120.153 446.509 110.024 444.85 105.661C443.191 101.298 433.87 93.2218 419.042 94.4444C400.828 95.9698 377.875 114.847 372.83 137.516C368.779 155.754 376.441 181.53 406.549 181.418ZM426.862 105.033C429.864 104.932 429.593 109.845 428.792 114.982C427.663 121.947 418.037 139.658 399.666 138.963C400.941 128.655 414.607 105.437 426.896 105.033H426.862Z" fill="#506B74"/>
</g>
<defs>
<clipPath id="clip0_40_46">
<rect width="447" height="222" fill="white"/>
</clipPath>
</defs>
</svg>
